<svg xmlns="http://www.w3.org/2000/svg" width="360" height="240" viewBox="0 0 360 240">
<defs><filter id="s" x="-20%" y="-20%" width="140%" height="140%"><feDropShadow dx="0" dy="8" stdDeviation="8" flood-color="#000" flood-opacity=".18"/></filter><linearGradient id="g" x1="0" x2="1" y1="0" y2="1"><stop stop-color="#f97316"/><stop offset="1" stop-color="#dbeafe"/></linearGradient></defs>
<rect width="360" height="240" rx="18" fill="#f8fafc"/>
<ellipse cx="180" cy="198" rx="100" ry="14" fill="#e2e8f0"/><g filter="url(#s)" transform="translate(70 78)"><rect x="0" y="0" width="220" height="78" rx="12" fill="#111827"/><rect x="13" y="13" width="194" height="52" rx="6" fill="#1f2937"/><rect x="20" y="22" width="12" height="8" rx="2" fill="#f97316"/><rect x="38" y="22" width="12" height="8" rx="2" fill="#e5e7eb"/><rect x="56" y="22" width="12" height="8" rx="2" fill="#e5e7eb"/><rect x="74" y="22" width="12" height="8" rx="2" fill="#f97316"/><rect x="92" y="22" width="12" height="8" rx="2" fill="#e5e7eb"/><rect x="110" y="22" width="12" height="8" rx="2" fill="#e5e7eb"/><rect x="128" y="22" width="12" height="8" rx="2" fill="#f97316"/><rect x="146" y="22" width="12" height="8" rx="2" fill="#e5e7eb"/><rect x="164" y="22" width="12" height="8" rx="2" fill="#e5e7eb"/><rect x="182" y="22" width="12" height="8" rx="2" fill="#f97316"/><rect x="20" y="38" width="12" height="8" rx="2" fill="#e5e7eb"/><rect x="38" y="38" width="12" height="8" rx="2" fill="#e5e7eb"/><rect x="56" y="38" width="12" height="8" rx="2" fill="#f97316"/><rect x="74" y="38" width="12" height="8" rx="2" fill="#e5e7eb"/><rect x="92" y="38" width="12" height="8" rx="2" fill="#e5e7eb"/><rect x="110" y="38" width="12" height="8" rx="2" fill="#f97316"/><rect x="128" y="38" width="12" height="8" rx="2" fill="#e5e7eb"/><rect x="146" y="38" width="12" height="8" rx="2" fill="#e5e7eb"/><rect x="164" y="38" width="12" height="8" rx="2" fill="#f97316"/><rect x="182" y="38" width="12" height="8" rx="2" fill="#e5e7eb"/><rect x="20" y="54" width="12" height="8" rx="2" fill="#e5e7eb"/><rect x="38" y="54" width="12" height="8" rx="2" fill="#f97316"/><rect x="56" y="54" width="12" height="8" rx="2" fill="#e5e7eb"/><rect x="74" y="54" width="12" height="8" rx="2" fill="#e5e7eb"/><rect x="92" y="54" width="12" height="8" rx="2" fill="#f97316"/><rect x="110" y="54" width="12" height="8" rx="2" fill="#e5e7eb"/><rect x="128" y="54" width="12" height="8" rx="2" fill="#e5e7eb"/><rect x="146" y="54" width="12" height="8" rx="2" fill="#f97316"/><rect x="164" y="54" width="12" height="8" rx="2" fill="#e5e7eb"/><rect x="182" y="54" width="12" height="8" rx="2" fill="#e5e7eb"/></g><text x="180" y="222" text-anchor="middle" font-family="Arial" font-size="15" font-weight="700" fill="#334155">Bàn Phím Cơ Gaming Rgb Nhập Khẩu</text></svg>